<?xml version="1.0" encoding="utf-8"?>
<!-- Generator: Adobe Illustrator 24.1.1, SVG Export Plug-In . SVG Version: 6.00 Build 0)  -->
<svg version="1.1" xmlns="http://www.w3.org/2000/svg" xmlns:xlink="http://www.w3.org/1999/xlink" x="0px" y="0px"
	 viewBox="0 0 1366 768" style="enable-background:new 0 0 1366 768;" xml:space="preserve">
<style type="text/css">
	.st0{fill:#DFCA9B;}
	.st1{fill:#9E005D;stroke:#000000;stroke-miterlimit:10;}
	.st2{fill:#E5D1AD;}
	.st3{fill:#7C7269;}
	.st4{fill:#3CBF8E;}
	.st5{fill:#FF2434;}
	.st6{fill:#FF4C22;}
	.st7{fill:#2D2DF7;}
	.st8{fill:#C924B5;}
	.st9{fill:#BC3CAA;}
	.st10{fill:#463E7C;}
	.st11{fill:#EEFF48;}
	.st12{fill:#5AF9BB;}
	.st13{fill:#480556;}
	.st14{fill:#456DFF;}
	.st15{fill:#BC5E3C;}
	.st16{fill:#7AFF43;}
	.st17{fill:#680202;}
	.st18{fill:#FF9E5C;}
	.st19{fill:#0B078E;}
</style>
<g id="Layer_1">
</g>
<g id="outer_cream">
</g>
<g id="Layer_4">
</g>
<g id="Layer_5">
</g>
<g id="Layer_6">
</g>
<g id="Layer_7">
	<path class="st0" d="M508.5,620.5c0,0-96-83-93-195c0,0-15-151,126-255c0,0,135-73,247-31c0,0,169,72,190,146c0,0,74,108,0,248
		c0,0-83,108-133,122c0,0-85,39-148,29C697.5,684.5,597.5,704.5,508.5,620.5z"/>
	<path class="st1" d="M460.5,484.5c0,0-53-30-21-85c0,0-1-43,37-64c0,0-3-20,20-36c0,0,16-39,15-77c0,0,10-29,43-37s40-33,109-15h19
		c0,0,27.94-23.71,51.1-24.38c2.01-0.06,3.98,0.06,5.9,0.38c24,4,92-13,111,48c0,0,72,55,74,65c0,0,121,42,39,142c0,0-25,85-13,97
		c0,0-18,96-99,144c0,0-25,21-48,13s-102-23-120-12s-69,31-114-18S564.5,565.5,460.5,484.5z"/>
	<path class="st2" d="M642,474c0,0-95-42-21-159c0,0,49-55,92-25c0,0,152,35,93,152C806,442,739,543,642,474z"/>
	<path class="st3" d="M639,448c0,0-58-43,10-121c0,0,91-17,94,26c0,0,79,38,39,95c0,0-71,73-137,0"/>
	<polyline class="st4" points="518,387 518,417 518,421 522,424 529,424 532,417 532,413 532,387 532,384 525,384 518,384 	"/>
	<polyline class="st4" points="558,337 558,367 558,371 562,374 569,374 572,367 572,363 572,337 572,334 565,334 558,334 	"/>
	<polyline class="st4" points="602.85,268.63 590.16,295.82 588.47,299.44 590.82,303.86 597.17,306.82 602.85,301.74 
		604.54,298.12 615.53,274.56 616.8,271.84 610.46,268.88 604.11,265.92 	"/>
	<polyline class="st5" points="552.89,237.79 537.2,279.14 535.11,284.65 537.28,290.21 543.83,292.69 550.29,284.11 552.39,278.59 
		565.98,242.76 567.55,238.62 561.01,236.14 554.46,233.66 	"/>
	<polyline class="st6" points="665.06,239.62 653.55,267.32 652.01,271.01 654.56,275.32 661.02,278 666.48,272.69 668.01,269 
		677.99,244.99 679.14,242.22 672.67,239.53 666.21,236.84 	"/>
	<polyline class="st7" points="492.09,332.65 479.04,359.66 477.31,363.27 479.6,367.71 485.91,370.75 491.65,365.75 493.39,362.15 
		504.69,338.73 506,336.03 499.69,332.99 493.39,329.95 	"/>
	<polyline class="st4" points="588,204 588,234 588,238 592,241 599,241 602,234 602,230 602,204 602,201 595,201 588,201 	"/>
	<polyline class="st4" points="819.81,273.62 808.67,301.47 807.19,305.18 809.79,309.46 816.29,312.06 821.67,306.67 
		823.16,302.96 832.81,278.82 833.93,276.03 827.43,273.43 820.93,270.83 	"/>
	<polyline class="st4" points="942,345 942,375 942,379 946,382 953,382 956,375 956,371 956,345 956,342 949,342 942,342 	"/>
	<polyline class="st8" points="856.52,253.79 841.4,279.7 839.39,283.16 841.33,287.76 847.38,291.29 853.5,286.76 855.51,283.3 
		868.61,260.84 870.12,258.25 864.08,254.72 858.03,251.2 	"/>
	<polyline class="st8" points="862.52,331.79 847.4,357.7 845.39,361.16 847.33,365.76 853.38,369.29 859.5,364.76 861.51,361.3 
		874.61,338.84 876.12,336.25 870.08,332.72 864.03,329.2 	"/>
	<polyline class="st9" points="819.01,507.64 809.1,535.96 807.78,539.73 810.56,543.89 817.17,546.2 822.31,540.58 823.63,536.81 
		832.22,512.27 833.21,509.44 826.61,507.12 820,504.81 	"/>
	<polyline class="st4" points="793,600 793,630 793,634 797,637 804,637 807,630 807,626 807,600 807,597 800,597 793,597 	"/>
	<polyline class="st10" points="691.54,525.27 675.53,557.29 673.4,561.56 675.37,566.55 681.63,569.68 688.05,563.55 
		690.19,559.28 704.06,531.53 705.66,528.33 699.4,525.2 693.14,522.07 	"/>
	<polyline class="st10" points="655.7,591.56 621.83,619.88 617.32,623.65 615.78,628.69 619,632.55 628.29,627.6 632.8,623.82 
		662.15,599.28 665.54,596.45 662.31,592.59 659.08,588.73 	"/>
	<polyline class="st11" points="582.52,504.79 567.4,530.7 565.39,534.16 567.33,538.76 573.38,542.29 579.5,537.76 581.51,534.3 
		594.61,511.84 596.12,509.25 590.08,505.72 584.03,502.2 	"/>
	<polyline class="st12" points="470.84,399.74 462.75,428.63 461.68,432.48 464.72,436.45 471.46,438.34 476.24,432.41 
		477.31,428.55 484.32,403.52 485.13,400.63 478.39,398.74 471.65,396.85 	"/>
	<polyline class="st4" points="873,553 873,583 873,587 877,590 884,590 887,583 887,579 887,553 887,550 880,550 873,550 	"/>
	<polyline class="st4" points="776.32,498.62 764.42,526.16 762.83,529.83 765.32,534.17 771.74,536.95 777.27,531.71 
		778.86,528.04 789.17,504.17 790.36,501.42 783.93,498.64 777.5,495.86 	"/>
	<polyline class="st13" points="777.07,566.65 764.05,593.68 762.32,597.28 764.62,601.72 770.93,604.76 776.67,599.75 
		778.4,596.15 789.68,572.72 790.98,570.02 784.68,566.98 778.37,563.94 	"/>
	<polyline class="st4" points="619.61,518.97 602.96,543.93 600.75,547.26 602.41,551.98 608.23,555.86 614.61,551.7 616.83,548.37 
		631.25,526.74 632.92,524.24 627.09,520.36 621.27,516.48 	"/>
	<polyline class="st4" points="567.12,473.74 552.58,499.98 550.64,503.48 552.68,508.04 558.8,511.43 564.82,506.76 566.76,503.27 
		579.36,480.52 580.82,477.9 574.7,474.51 568.57,471.11 	"/>
	<polyline class="st14" points="654.19,518.75 639.54,544.93 637.59,548.42 639.62,552.99 645.73,556.41 651.76,551.76 
		653.72,548.27 666.41,525.58 667.87,522.96 661.76,519.54 655.65,516.13 	"/>
	<polyline class="st4" points="854,464 854,494 854,498 858,501 865,501 868,494 868,490 868,464 868,461 861,461 854,461 	"/>
	<polyline class="st4" points="876.32,389.04 883.14,418.25 884.05,422.15 888.62,424.16 895.44,422.57 896.77,415.07 
		895.86,411.17 889.95,385.85 889.27,382.93 882.46,384.52 875.64,386.11 	"/>
	<polyline class="st15" points="847,410 847,440 847,444 851,447 858,447 861,440 861,436 861,410 861,407 854,407 847,407 	"/>
	<polyline class="st4" points="905,460 905,490 905,494 909,497 916,497 919,490 919,486 919,460 919,457 912,457 905,457 	"/>
	<polyline class="st4" points="880.06,279.62 868.55,307.32 867.01,311.01 869.55,315.32 876.02,318 881.47,312.69 883.01,309 
		892.99,284.99 894.14,282.22 887.68,279.53 881.21,276.85 	"/>
	<polyline class="st16" points="775.13,255.64 765.04,283.89 763.69,287.66 766.45,291.83 773.04,294.18 778.22,288.6 
		779.57,284.83 788.31,260.34 789.32,257.52 782.73,255.17 776.13,252.81 	"/>
	<polyline class="st17" points="514.15,436.35 495.41,459.78 492.91,462.9 494.16,467.74 499.63,472.12 506.35,468.52 508.84,465.4 
		525.09,445.1 526.96,442.76 521.49,438.38 516.03,434.01 	"/>
	<polyline class="st18" points="541.37,459.67 527.91,486.48 526.12,490.05 528.35,494.53 534.61,497.67 540.43,492.76 
		542.22,489.18 553.88,465.95 555.23,463.26 548.97,460.12 542.71,456.98 	"/>
	<polyline class="st4" points="702.02,188.64 689.08,215.71 687.35,219.32 689.66,223.75 695.98,226.77 701.71,221.75 
		703.43,218.14 714.65,194.68 715.94,191.98 709.63,188.96 703.31,185.94 	"/>
	<polyline class="st4" points="652.02,196.64 639.08,223.71 637.35,227.32 639.66,231.75 645.98,234.77 651.71,229.75 
		653.43,226.14 664.65,202.68 665.94,199.98 659.63,196.96 653.31,193.94 	"/>
	<polyline class="st4" points="901.8,326.7 907.69,356.12 908.47,360.04 912.98,362.2 919.84,360.83 921.41,353.37 920.63,349.45 
		915.53,323.96 914.94,321.02 908.08,322.39 901.21,323.76 	"/>
	<polyline class="st19" points="785.34,193.4 806.41,242.81 809.22,249.4 815.01,252.77 821.45,250.03 819.29,237.32 816.48,230.73 
		798.22,187.91 796.11,182.97 789.67,185.71 783.23,188.46 	"/>
</g>
</svg>
